PathFileType	4	(X/Y/Z)	S01_0010_Gait_markers.trc
DataRate	CameraRate	NumFrames	NumMarkers	Units	OrigDataRate	OrigDataStartFrame	OrigNumFrames
250.000000	250.000000	4	54	mm	250.000000	0	354
Frame#	Time	HEAD_ANT			R_HEAD			L_HEAD			C7			R_BACK			L_BACK			STERNUM			R_ACROMION			R_HUM_PROX			R_HUM_ANT			R_HUM_POST			R_ELBOW_LAT			R_ELBOW_MED			R_FOREARM			R_WIRST_LAT			R_WRITS_MED			R_HAND			L_ACROMION			L_HUM_PROX			L_HUM_ANT			L_HUM_POST			L_ELBOW_LAT			L_ELBOW_MED			L_FOREARM			L_WRIST_LAT			L_WIRST_MED			L_HAND			R_ILIAC			SACRUM			L_ILIAC			R_GTROCH			R_THIGH__1			R_THIGH_2			R_THIGH_3			R_THIGH_4			R_SHANK_1			R_SHANK_2			R_SHANK_3			R_SHANK_4			R_HEEL			R_FOOT_LAT			R_FOOT_MED			L_GTROCH			L_THIGH_1			L_THIGH_2			L_THIGH_3			L_THIGH_4			L_SHANK_1			L_SHANK_2			L_SHANK_3			L_SHANK_4			L_HEEL			L_FOOT_LAT			L_FOOT_MED			
		X1	Y1	Z1	X2	Y2	Z2	X3	Y3	Z3	X4	Y4	Z4	X5	Y5	Z5	X6	Y6	Z6	X7	Y7	Z7	X8	Y8	Z8	X9	Y9	Z9	X10	Y10	Z10	X11	Y11	Z11	X12	Y12	Z12	X13	Y13	Z13	X14	Y14	Z14	X15	Y15	Z15	X16	Y16	Z16	X17	Y17	Z17	X18	Y18	Z18	X19	Y19	Z19	X20	Y20	Z20	X21	Y21	Z21	X22	Y22	Z22	X23	Y23	Z23	X24	Y24	Z24	X25	Y25	Z25	X26	Y26	Z26	X27	Y27	Z27	X28	Y28	Z28	X29	Y29	Z29	X30	Y30	Z30	X31	Y31	Z31	X32	Y32	Z32	X33	Y33	Z33	X34	Y34	Z34	X35	Y35	Z35	X36	Y36	Z36	X37	Y37	Z37	X38	Y38	Z38	X39	Y39	Z39	X40	Y40	Z40	X41	Y41	Z41	X42	Y42	Z42	X43	Y43	Z43	X44	Y44	Z44	X45	Y45	Z45	X46	Y46	Z46	X47	Y47	Z47	X48	Y48	Z48	X49	Y49	Z49	X50	Y50	Z50	X51	Y51	Z51	X52	Y52	Z52	X53	Y53	Z53	X54	Y54	Z54	

1	0	68.77951812744141	1731.903564453125	-300.9364318847652	10.33264923095703	1678.415283203125	-226.0151824951168	11.39548397064209	1686.064208984375	-373.7332763671871	-129.5781555175781	1516.131958007812	-314.2528381347653	-213.4739227294922	1323.411254882812	-248.04670715332	-207.2774200439453	1326.751953125	-389.579406738281	38.32373428344727	1345.712524414062	-301.1708068847653	-61.86652755737305	1467.168701171875	-135.9501190185544	-123.7620162963867	1313.609619140625	-45.15558242797822	-72.80982208251953	1222.451171875	-32.04956054687473	-193.6127471923828	1237.446166992188	-39.17185592651339	-157.3784332275391	1127.251342773438	-22.8804206848142	-169.6690063476562	1121.99267578125	-102.7314987182615	-64.65058898925781	938.7433471679688	-11.19297218322733	-25.90341949462891	871.0177612304688	-48.17808532714825	-96.60401153564453	849.98876953125	-17.45133018493634	-31.06793785095215	784.3385620117188	8.117573738098319	-44.64974594116211	1465.593383789062	-475.0658264160153	-54.51382446289062	1301.7646484375	-574.1016235351559	13.50784587860107	1225.705932617188	-569.3271484374998	-106.3096694946289	1220.572509765625	-603.6644287109373	-36.83459854125977	1121.17138671875	-609.7084960937498	-91.39947509765625	1107.49609375	-555.6568603515623	107.13623046875	980.5184326171876	-560.6450195312498	147.3787384033203	937.2216796875001	-499.9516601562498	118.4760208129883	896.0765991210939	-562.6544189453123	205.1017150878906	866.8629150390626	-530.4318237304685	-67.22695922851562	1064.761474609375	-138.2267303466795	-195.4718627929688	1041.103271484375	-301.543273925781	-75.78369140625	1061.840209960938	-481.1023254394529	-102.9779815673828	913.412109375	-122.7450866699217	1.968993425369263	640.8570556640625	-141.1908874511717	51.56615447998047	672.4187622070312	-131.1927947998045	87.11148834228516	576.4718017578125	-165.8669433593749	22.4547004699707	562.921142578125	-164.0487518310546	79.45360565185547	348.5404357910157	-155.3930511474609	138.8079681396484	345.4211120605469	-165.9091339111327	161.0609588623047	263.6471557617188	-181.4959716796874	97.63487243652344	249.3246765136719	-177.6569213867187	133.7518615722656	36.31474304199224	-265.0855712890625	288.8382873535156	57.75994110107425	-167.7076263427734	337.5080871582031	93.24399566650396	-252.2733001708984	-125.9329833984375	956.6077270507814	-483.0673828124998	-115.5951232910156	663.3359375000001	-467.1035766601561	-163.0992431640625	696.8890991210939	-479.5647888183592	-201.1460723876953	601.9100341796876	-444.3442077636718	-137.4387512207031	589.7347412109376	-441.8492431640624	-251.9903259277344	337.1709594726564	-424.4544677734374	-312.2869873046875	331.0809936523439	-423.8798828124999	-335.5811157226562	248.9451904296876	-402.9430541992187	-272.7949523925781	239.4533081054688	-399.1334533691406	-416.9465637207031	78.13643646240241	-324.7437744140625	-251.0652008056641	20.02623367309579	-397.8467102050781	-211.4222106933594	27.85232543945319	-293.3925476074219	
2	0.004	74.37570953369141	1730.723876953125	-300.3552246093746	16.1584529876709	1676.925903320312	-225.4501037597653	16.99130058288574	1685.0205078125	-373.1964416503902	-124.2476959228516	1515.07080078125	-313.9965209960934	-206.5217895507812	1322.100463867188	-247.5983123779294	-201.9630889892578	1325.57958984375	-389.3327941894528	43.90785980224609	1344.297729492188	-300.903137207031	-56.49998474121094	1465.795532226562	-135.5593566894528	-118.4656600952148	1312.287353515625	-44.73090744018526	-67.68198394775391	1221.05126953125	-31.72928619384739	-188.4599304199219	1236.080688476562	-39.19827651977511	-151.9539184570312	1125.918090820312	-22.67539787292456	-164.2691650390625	1120.463256835938	-102.6333999633787	-59.72903823852539	937.4148559570312	-11.10571098327616	-20.80498313903809	869.6876831054688	-47.95357894897442	-91.872802734375	848.4247436523438	-17.84043502807598	-26.0089111328125	782.6211547851562	7.353064060211356	-39.02885437011719	1464.417724609375	-474.8597717285153	-48.93267059326172	1300.7021484375	-573.8652954101559	19.20856475830078	1224.683959960938	-569.132873535156	-100.6376724243164	1219.509033203125	-603.5019531249998	-30.78713607788086	1120.098876953125	-609.5849609374998	-85.39579772949219	1106.317138671875	-555.5802612304685	113.4291381835938	979.8746337890626	-560.1019897460935	153.5852508544922	936.7596435546876	-499.3672790527341	125.1018295288086	895.4180908203126	-562.129211425781	211.7676696777344	866.5870361328126	-529.701232910156	-61.55404663085938	1063.230102539062	-138.1084289550779	-188.2066040039062	1039.951782226562	-300.5053405761716	-70.24671936035156	1060.655517578125	-481.2751770019529	-97.35166931152344	911.9209594726562	-122.7502670288084	6.87715482711792	639.0211181640625	-141.1580200195311	56.48262786865234	670.7500610351562	-131.2958374023436	92.35630798339844	574.969482421875	-165.9106445312499	27.33545684814453	561.4158325195312	-164.7406005859374	87.84051513671875	347.4801940917969	-155.4120483398437	147.3424530029297	345.4057617187501	-166.2440948486327	170.9508972167969	264.1524047851563	-182.0152282714843	107.8697052001953	248.8965301513672	-177.8532562255859	147.335693359375	36.36514282226568	-265.344970703125	302.4211120605469	59.91770553588871	-168.6605224609375	350.3662109375	96.15683746337896	-253.4270782470703	-120.8008346557617	955.9681396484376	-483.2422180175779	-111.6370315551758	662.6508178710939	-467.2940063476561	-158.9045104980469	696.4512939453126	-479.5333557128905	-197.0372161865234	601.4895019531251	-444.5664062499999	-133.6861724853516	589.0020751953126	-442.0162048339843	-249.7254180908203	337.109832763672	-424.7956237792968	-309.993408203125	331.3499450683595	-423.9793090820312	-334.0113525390625	249.4867248535157	-403.1528320312499	-271.1948852539062	239.6376190185548	-399.2260131835937	-416.6295776367188	79.20403289794929	-325.1152954101562	-251.0399322509766	20.03556632995614	-397.878173828125	-211.4264373779297	27.8643760681153	-293.4296264648438	
3	0.008	80.07343292236328	1729.571411132812	-299.8222961425777	21.83344078063965	1675.735107421875	-224.9570617675778	22.58297729492188	1683.661254882812	-372.7005004882809	-118.6709213256836	1514.0283203125	-313.6956787109372	-201.5521850585938	1320.947631835938	-247.7188568115232	-196.5565795898438	1324.30810546875	-389.0519409179685	49.45293807983398	1343.005004882812	-300.6814880371091	-51.05992126464844	1464.509887695312	-135.3263549804684	-113.2495574951172	1310.849487304688	-44.51830673217744	-62.57230377197266	1219.626342773438	-31.58101844787571	-183.4366912841797	1234.459350585938	-39.51821136474582	-146.8274993896484	1124.703491210938	-22.77663612365698	-158.9717559814453	1119.02783203125	-102.5307235717771	-54.64236450195312	936.1107177734375	-10.97173309326151	-15.68183422088623	868.5209350585938	-47.48224258422832	-86.58908843994141	847.3549194335938	-17.64619445800762	-21.35441970825195	781.5242919921875	8.390603065490897	-33.39505386352539	1463.236694335938	-474.4625854492184	-43.27232360839844	1299.612426757813	-573.4737548828122	24.85903549194336	1223.765991210938	-568.9965209960935	-94.70611572265625	1218.461181640625	-603.460754394531	-24.83466529846191	1118.963623046875	-609.4613037109373	-79.39580535888672	1105.161254882813	-555.602355957031	119.4939727783203	979.3143920898439	-560.0806884765623	159.7614898681641	936.1798095703126	-498.8063354492185	131.4803924560547	894.7382202148439	-561.7432861328123	218.3185424804688	866.3207397460939	-529.091369628906	-55.50550079345703	1061.7041015625	-137.8786773681638	-183.5241088867188	1039.060302734375	-300.6136474609373	-63.85405731201172	1059.149169921875	-480.7917785644529	-91.79535675048828	910.3388061523438	-122.9363403320311	11.99785232543945	637.5689697265625	-140.8996582031249	61.51079177856445	669.2559204101562	-131.0079956054686	97.62811279296875	573.8079223632812	-166.1137084960936	32.60365295410156	559.86376953125	-164.8078002929686	96.12847137451172	346.5843200683594	-155.6181640624999	155.6658477783203	345.4812927246094	-166.5274353027343	180.4219055175781	264.4194641113282	-182.643325805664	117.6277008056641	248.2362060546875	-177.6147766113281	160.3742065429688	36.48539733886724	-265.6497802734375	315.6882934570312	62.11687469482425	-169.2512359619141	362.6009216308594	99.05738067626959	-254.7366180419922	-115.5800552368164	955.1662597656251	-483.1555175781248	-107.3686676025391	661.9454956054689	-467.6429443359373	-154.6194305419922	695.7775268554689	-479.3297119140623	-193.5436401367188	601.2160644531251	-444.9066772460936	-129.8476409912109	588.2609252929689	-442.336212158203	-247.4588012695312	336.936492919922	-424.9987487792968	-307.6495666503906	331.7720031738282	-424.2180480957031	-332.2150573730469	250.0796966552735	-403.4697570800781	-269.7210388183594	239.9281158447266	-399.3313293457031	-415.8558349609375	81.2866287231446	-324.9288330078125	-251.0330505371094	20.01184654235849	-397.9450988769531	-211.4196319580078	27.88848876953131	-293.4635925292969	
4	0.012	85.7255859375	1728.281860351562	-299.419281005859	27.35924339294434	1674.356811523438	-224.5921478271481	28.28937721252441	1682.413330078125	-372.2268371582027	-113.071533203125	1512.85595703125	-313.4324340820309	-196.1308746337891	1319.58642578125	-247.6678771972653	-191.1645202636719	1323.175659179688	-388.7972717285153	55.10651016235352	1341.697875976562	-300.532775878906	-45.65568161010742	1463.165161132812	-135.0429229736325	-108.2726821899414	1309.5068359375	-44.87207031249971	-57.42430877685547	1218.307739257812	-31.34972190856907	-178.2449645996094	1233.157958984375	-39.5972366333005	-141.3054504394531	1122.966430664062	-22.52995872497534	-153.7649993896484	1117.414916992188	-102.6310577392576	-49.58752822875977	934.5548095703125	-10.77604961395243	-10.41344261169434	867.0748901367188	-47.38349533081036	-81.43310546875	846.0494384765625	-17.55431175231915	-16.39558219909668	780.169189453125	8.371625900268729	-27.9079418182373	1462.093139648438	-474.230804443359	-37.45343780517578	1298.445068359375	-573.0820312499997	30.60443687438965	1222.639404296875	-568.8074951171873	-88.83606719970703	1217.297729492188	-603.182922363281	-18.74073028564453	1117.882080078125	-609.2617187499998	-73.43347930908203	1103.973022460938	-555.528137207031	125.7265167236328	978.6025390625001	-559.758850097656	166.0477752685547	935.5423583984376	-498.4233398437498	137.9229125976562	894.0588378906251	-561.3115234374998	224.8361358642578	866.0725097656251	-528.569152832031	-50.02960586547852	1060.17626953125	-137.5912017822263	-178.3024444580078	1038.151977539062	-300.6032104492185	-59.19052886962891	1058.154907226562	-480.9200744628904	-86.22907257080078	908.9829711914062	-123.0749053955076	17.23628616333008	635.8322143554688	-140.9823150634764	66.87250518798828	667.8463134765625	-131.2221679687499	102.9141616821289	572.5780639648438	-166.4714202880858	38.02531433105469	558.3428344726562	-165.123077392578	104.3532409667969	345.5230407714844	-155.8094024658202	163.8752899169922	345.5248718261719	-166.671890258789	189.8194732666016	264.7897338867188	-183.2518005371093	127.3659362792969	247.4400634765625	-178.6068725585937	173.2392578125	36.9285621643067	-265.95263671875	328.5794372558594	64.03115844726567	-170.4608154296875	374.5872802734375	102.1561431884766	-255.9195098876953	-110.3521041870117	954.5765380859376	-483.0566406249998	-102.7928771972656	661.2225341796876	-467.9149780273436	-150.0950164794922	695.3818359375001	-479.7695922851561	-189.3801879882812	600.7064819335939	-445.1051940917968	-125.7095108032227	587.6113281250001	-442.6574401855468	-245.0903625488281	336.9820556640626	-425.3087158203124	-305.3166198730469	331.9844970703126	-424.6215209960937	-330.7605590820312	250.8484649658204	-403.9587707519531	-267.8381042480469	239.9698944091798	-399.7952575683593	-415.4051818847656	82.31523895263679	-325.3831481933594	-250.9706878662109	19.98523902893075	-397.9684753417969	-211.4759368896484	27.91631126403815	-293.48486328125	
